<svg width="50" height="68" viewBox="0 0 50 68" fill="none" xmlns="http://www.w3.org/2000/svg">
<path fill-rule="evenodd" clip-rule="evenodd" d="M2.35806 67.2288H27.2226C41.1098 67.2288 49.1111 60.5151 49.1111 49.0191C49.1111 41.2018 45.5243 35.8676 38.4427 33.5684C44.7886 30.9013 48.0994 25.5672 48.0994 18.1178C48.0994 6.89762 40.0062 0 26.7628 0H2.8884C9.56482 1.7035 15.0757 5.31567 18.8289 10.3924H25.7511C32.3728 10.3924 36.0516 13.5193 36.0516 19.3133C36.0516 25.2913 32.4648 28.6941 26.027 28.6941H11.7719V22.6242H11.4427C9.74326 16.8459 5.63188 12.8264 0 11.1226V56.1276C5.81372 54.4292 10.0979 50.4067 11.7719 44.9172V38.6267H26.7628C33.2925 38.6267 37.0632 41.8456 37.0632 47.5476C37.0632 53.6175 33.3845 56.8364 26.7628 56.8364H18.7225C14.8075 61.8879 9.13061 65.5178 2.35806 67.2288Z" fill="#156064"/>
</svg>
