<svg width="196" height="266" viewBox="0 0 196 266" fill="none" xmlns="http://www.w3.org/2000/svg">
<path fill-rule="evenodd" clip-rule="evenodd" d="M12.681 265.763H116.087C133.558 265.763 148.2 262.441 160.011 255.797C171.946 249.153 180.928 239.925 186.957 228.113C192.986 216.301 196 202.521 196 186.772C196 171.392 191.632 157.674 182.896 145.616C176.539 136.715 167.969 130.061 157.187 125.652C163.487 121.861 168.796 116.766 173.115 110.365C180.128 100.153 183.635 87.7263 183.635 73.0848C183.635 61.15 180.805 49.5844 175.145 38.3879C169.608 27.1915 161.057 18.0251 149.492 10.8889C138.049 3.62963 123.346 0 105.382 0H12.5295C25.6053 3.84338 37.3524 9.6877 47.7709 17.533C57.0108 24.4351 65.0043 32.4326 71.7512 41.5254H104.829C115.41 41.5254 123.654 44.6014 129.559 50.7533C135.465 56.9052 138.418 64.5951 138.418 73.823C138.418 80.8362 136.942 86.742 133.989 91.5405C131.036 96.339 127.037 99.9686 121.992 102.429C116.948 104.89 111.227 106.121 104.829 106.121H45.032V88.8737C39.7707 72.8871 31.2713 60.3033 19.5336 51.1224C13.8064 46.586 7.29522 43.095 0 40.6493V225.113C7.29522 222.668 13.8064 219.177 19.5336 214.64C31.2713 205.343 39.7707 192.753 45.032 176.87V147.646H111.842C120.085 147.646 127.16 149.368 133.066 152.814C138.972 156.136 143.463 160.627 146.539 166.286C149.615 171.946 151.153 178.344 151.153 185.48C151.153 193.355 149.369 200.183 145.8 205.966C142.355 211.626 137.557 216.055 131.405 219.254C125.253 222.33 118.301 223.868 110.55 223.868H72.0636C65.2514 233.167 57.1539 241.349 47.7709 248.414C37.3927 256.167 25.696 261.95 12.681 265.763Z" fill="#8003CD"/>
</svg>
